<?xml version="1.0" standalone="no"?>
<!DOCTYPE svg PUBLIC "-//W3C//DTD SVG 20010904//EN"
 "http://www.w3.org/TR/2001/REC-SVG-20010904/DTD/svg10.dtd">
<svg version="1.0" xmlns="http://www.w3.org/2000/svg"
 width="300.000000pt" height="253.000000pt" viewBox="0 0 300.000000 253.000000"
 preserveAspectRatio="xMidYMid meet">
<metadata>
Created by potrace 1.10, written by Peter Selinger 2001-2011
</metadata>
<g transform="translate(0.000000,253.000000) scale(0.100000,-0.100000)"
fill="#000000" stroke="none">
<path d="M1987 2026 c-48 -18 -69 -36 -63 -53 3 -8 2 -12 -3 -8 -9 5 -25 -34
-35 -90 -3 -16 -13 -118 -22 -225 -8 -107 -19 -213 -24 -235 -15 -63 -14 -65
30 -65 36 0 40 3 40 24 0 36 10 56 28 56 13 0 12 -4 -4 -22 -15 -17 -12 -16
17 5 20 15 39 27 43 27 9 0 71 -72 69 -80 -1 -4 28 -8 65 -9 l68 -2 -2 28 c0
15 6 34 15 41 14 11 13 12 -5 3 -15 -7 -24 -7 -32 1 -9 9 -12 9 -12 -1 0 -11
-3 -11 -17 0 -16 12 -17 12 -6 -2 7 -9 11 -19 8 -23 -3 -3 1 -2 7 4 18 15 27
12 23 -7 -2 -10 -4 -20 -4 -23 -1 -3 -20 -6 -44 -6 -26 -1 -35 1 -23 5 20 8
30 37 16 46 -5 3 -6 13 -3 22 4 10 2 14 -5 9 -6 -3 -13 -2 -16 3 -3 5 2 12 11
16 10 3 19 1 21 -4 2 -7 10 -8 21 -1 10 5 21 6 25 3 3 -3 6 -1 6 6 0 7 -6 11
-13 8 -13 -5 -39 17 -30 26 2 3 0 14 -6 24 -10 17 -10 17 -11 -2 0 -17 -2 -17
-10 -5 -6 9 -10 10 -10 3 0 -6 4 -14 10 -18 5 -3 6 -13 3 -22 -6 -14 -8 -14
-21 3 -12 16 -14 16 -9 2 4 -10 0 -21 -10 -26 -13 -8 -13 -10 -1 -15 9 -3 15
-19 16 -39 1 -26 -1 -30 -9 -15 -6 9 -17 17 -25 17 -8 0 -12 5 -9 10 4 6 11 8
16 5 5 -4 9 -1 9 4 0 6 -8 11 -18 11 -10 0 -40 22 -67 50 -26 27 -52 47 -57
44 -11 -7 -10 354 2 397 16 56 47 79 103 76 31 -2 53 -10 65 -22 17 -19 16
-19 -4 -2 -37 30 -37 18 0 -17 22 -20 36 -43 36 -57 0 -17 3 -20 9 -11 10 17
52 -111 81 -248 27 -123 30 -131 41 -103 5 15 3 37 -7 65 -18 51 -13 73 14 59
14 -7 24 -7 36 2 14 10 11 12 -17 11 -19 -1 -38 -4 -44 -7 -10 -6 -40 82 -69
203 -29 123 -99 178 -187 146z m-81 -148 c-4 -24 -6 -101 -5 -173 0 -71 0
-158 0 -192 -2 -64 8 -83 29 -58 9 11 16 12 26 5 10 -9 11 -6 7 10 l-6 21 -23
-22 -24 -22 0 31 c0 45 18 49 54 13 30 -31 30 -33 12 -46 -10 -8 -23 -12 -28
-9 -18 11 -48 -8 -48 -31 0 -15 -7 -26 -21 -30 -29 -10 -33 -1 -15 34 12 21
13 37 7 54 -6 14 -8 27 -6 28 3 4 11 92 20 234 8 130 16 195 22 195 3 0 2 -19
-1 -42z m-45 -451 c-10 -9 -11 -8 -5 6 3 10 9 15 12 12 3 -3 0 -11 -7 -18z
m252 -33 c-7 -19 -10 -18 -16 5 -3 13 -1 18 9 14 7 -2 10 -11 7 -19z"/>
<path d="M2145 1815 c18 -291 22 -325 41 -325 10 0 12 -9 8 -30 -7 -31 0 -36
25 -21 9 6 11 16 5 32 -4 13 -7 31 -6 39 3 13 2 13 -7 0 -5 -8 -13 -12 -16 -9
-8 9 -10 78 -2 86 4 3 7 -5 7 -19 0 -14 7 -28 15 -32 12 -4 14 0 10 17 -2 12
-13 65 -24 117 -11 52 -29 122 -40 155 l-20 60 4 -70z m44 -203 c1 -7 -3 -10
-9 -7 -5 3 -10 18 -9 33 0 24 1 25 9 7 5 -11 9 -26 9 -33z"/>
<path d="M1055 1850 c-10 -11 -15 -20 -12 -20 4 0 16 9 27 20 11 11 16 20 12
20 -5 0 -17 -9 -27 -20z"/>
<path d="M1128 1700 l3 -160 -153 -1 c-95 0 -145 -4 -132 -9 33 -13 282 -4
300 11 12 10 17 10 23 0 6 -9 11 -8 21 4 13 15 8 19 -22 16 -16 -2 -18 10 -18
128 0 72 4 131 8 131 4 0 13 -5 20 -12 9 -9 12 -7 12 9 0 15 -10 24 -31 32
-18 6 -32 11 -33 11 -1 0 0 -72 2 -160z"/>
<path d="M957 1834 c-15 -8 -27 -19 -27 -24 0 -6 -6 -10 -14 -10 -19 0 -86
-79 -86 -100 0 -9 -6 -22 -12 -29 -18 -18 17 -43 49 -35 21 6 23 3 23 -30 0
-20 4 -36 9 -36 6 0 7 16 4 35 -5 30 -3 34 11 29 11 -4 16 -18 16 -45 0 -38 1
-38 25 -27 14 6 25 17 25 25 0 7 7 13 15 13 9 0 12 6 8 16 -5 15 -7 15 -15 0
-5 -9 -14 -13 -20 -10 -7 5 -9 1 -5 -9 4 -11 1 -17 -7 -17 -8 0 -16 13 -18 29
-4 28 -4 29 58 34 34 2 75 13 92 22 l30 18 -25 44 c-18 32 -21 48 -14 57 11
13 5 26 -10 26 -5 0 -6 -7 -2 -16 4 -10 -7 -7 -33 11 -21 14 -41 30 -44 35 -3
4 -17 2 -33 -6z m63 -38 c0 -8 6 -16 13 -19 9 -3 9 -9 -1 -26 -7 -12 -8 -21
-2 -21 5 0 10 -6 10 -14 0 -8 5 -18 12 -22 6 -4 8 -3 4 4 -3 6 -1 14 5 18 8 5
8 9 -1 14 -7 4 -10 15 -8 25 2 13 9 5 26 -25 26 -50 27 -54 6 -46 -8 3 -13 2
-10 -3 5 -8 -27 -19 -80 -26 -19 -3 -20 1 -16 57 3 35 0 64 -6 70 -17 17 -27
-18 -12 -37 10 -12 10 -15 -1 -15 -12 0 -12 -2 0 -9 12 -8 12 -14 1 -40 -11
-27 -18 -31 -49 -31 -42 0 -61 14 -61 45 0 35 12 37 32 8 10 -16 18 -23 18
-17 0 5 -5 15 -12 22 -15 15 -6 24 16 16 9 -3 16 -18 17 -33 0 -14 3 -20 6
-13 2 6 8 10 12 8 4 -3 8 1 8 9 0 8 -4 12 -8 10 -4 -3 -5 3 -3 12 4 14 -2 18
-26 19 -17 1 -34 4 -37 8 -11 10 18 26 47 26 18 0 21 3 11 9 -10 6 -6 11 15
19 42 15 74 14 74 -2z"/>
<path d="M1001 1784 c0 -11 3 -14 6 -6 3 7 2 16 -1 19 -3 4 -6 -2 -5 -13z"/>
<path d="M998 1706 c-3 -14 -2 -26 2 -26 12 0 19 26 10 39 -5 9 -9 4 -12 -13z"/>
<path d="M1008 1833 c7 -3 16 -2 19 1 4 3 -2 6 -13 5 -11 0 -14 -3 -6 -6z"/>
<path d="M813 1808 c-2 -16 1 -18 10 -9 7 7 8 14 1 21 -6 6 -10 2 -11 -12z"/>
<path d="M2460 1794 l-25 -15 25 5 c14 3 36 6 50 6 20 0 22 2 10 10 -20 13
-31 12 -60 -6z"/>
<path d="M2265 1767 c-14 -18 -17 -37 -5 -37 6 0 10 -5 10 -11 0 -6 -7 -9 -15
-5 -8 3 -15 2 -15 -3 0 -5 9 -11 20 -14 11 -3 17 -1 14 4 -3 5 2 12 10 15 9 3
16 10 16 15 0 4 -7 6 -16 2 -14 -5 -16 -2 -10 20 7 30 6 32 -9 14z"/>
<path d="M2410 1770 c-1 -8 -2 -18 -1 -22 0 -5 -4 -8 -10 -8 -5 0 -7 -4 -4
-10 3 -5 1 -10 -5 -10 -6 0 -8 -4 -5 -10 9 -14 -8 -12 -24 3 -10 8 -12 8 -7 0
3 -6 -2 -16 -11 -22 -11 -6 -13 -11 -5 -11 7 0 11 -4 8 -8 -2 -4 0 -14 6 -22
8 -12 9 -12 4 2 -3 10 -1 20 5 23 5 4 6 11 3 17 -4 6 -3 8 3 5 11 -7 5 -66 -9
-84 -5 -7 -7 -17 -3 -23 9 -15 25 -2 19 15 -4 10 0 12 17 8 15 -4 20 -3 15 6
-4 6 -10 9 -14 7 -4 -2 -8 7 -8 20 -1 16 3 24 15 24 13 0 13 2 2 9 -11 7 -10
13 4 34 9 14 15 36 12 49 -2 13 -5 16 -7 8z"/>
<path d="M2482 1751 l-23 -17 25 0 c14 0 28 6 30 13 8 20 -8 23 -32 4z"/>
<path d="M2290 1699 c0 -5 5 -7 10 -4 6 3 10 8 10 11 0 2 -4 4 -10 4 -5 0 -10
-5 -10 -11z"/>
<path d="M2535 1698 c-25 -14 -59 -48 -48 -48 4 0 0 -5 -9 -11 -28 -16 -21
-30 7 -17 15 7 24 17 21 25 -3 7 -2 13 3 13 4 0 20 11 35 25 28 26 25 32 -9
13z"/>
<path d="M2460 1690 c0 -5 -6 -10 -13 -10 -8 0 -22 -9 -32 -20 -10 -11 -13
-20 -7 -20 7 0 12 -14 12 -31 0 -27 2 -30 15 -19 11 9 13 16 6 23 -7 7 -6 14
3 21 14 11 31 66 21 66 -3 0 -5 -4 -5 -10z m-24 -47 c-10 -10 -19 5 -10 18 6
11 8 11 12 0 2 -7 1 -15 -2 -18z"/>
<path d="M2315 1660 c-3 -5 -1 -10 4 -10 6 0 11 5 11 10 0 6 -2 10 -4 10 -3 0
-8 -4 -11 -10z"/>
<path d="M2276 1642 c-12 -11 -5 -37 17 -60 12 -14 17 -22 11 -19 -6 3 -11 0
-11 -8 0 -8 5 -13 11 -12 6 1 11 -7 10 -19 0 -16 4 -20 18 -16 17 4 17 6 3 22
-20 22 -19 40 3 41 10 0 3 7 -18 17 -34 17 -58 58 -25 46 8 -3 13 -10 10 -14
-3 -5 -1 -11 5 -15 5 -3 10 3 10 13 0 19 -32 36 -44 24z"/>
<path d="M2560 1639 c0 -5 5 -7 10 -4 6 3 10 8 10 11 0 2 -4 4 -10 4 -5 0 -10
-5 -10 -11z"/>
<path d="M1041 1624 c0 -11 3 -14 6 -6 3 7 2 16 -1 19 -3 4 -6 -2 -5 -13z"/>
<path d="M1084 1622 c-10 -15 -8 -18 15 -19 14 0 18 1 9 4 -10 2 -15 10 -11
19 7 20 0 18 -13 -4z"/>
<path d="M2333 1625 c0 -8 4 -12 9 -9 5 3 6 10 3 15 -9 13 -12 11 -12 -6z"/>
<path d="M811 1603 c-1 -26 9 -29 28 -10 7 6 12 8 11 2 -4 -18 0 -35 8 -35 6
0 8 40 3 58 -1 1 -10 -2 -20 -8 -14 -7 -21 -6 -24 3 -3 6 -6 2 -6 -10z"/>
<path d="M2520 1606 c0 -23 16 -27 17 -5 1 10 -2 19 -8 19 -5 0 -9 -6 -9 -14z"/>
<path d="M2490 1590 c6 -11 12 -20 14 -20 2 0 2 9 -1 20 -3 11 -9 20 -15 20
-5 0 -4 -9 2 -20z"/>
<path d="M2570 1600 c-13 -8 -12 -10 3 -10 9 0 17 5 17 10 0 12 -1 12 -20 0z"/>
<path d="M1046 1575 c4 -8 10 -15 15 -15 5 0 9 7 9 15 0 8 -7 15 -15 15 -9 0
-12 -6 -9 -15z"/>
<path d="M997 1573 c-8 -12 30 -29 40 -19 4 3 -1 6 -9 6 -9 0 -18 5 -20 12 -3
9 -6 9 -11 1z"/>
<path d="M1090 1570 c0 -5 5 -10 10 -10 6 0 10 5 10 10 0 6 -4 10 -10 10 -5 0
-10 -4 -10 -10z"/>
<path d="M2390 1560 c-8 -5 -11 -12 -7 -17 5 -4 12 -1 17 7 7 11 11 8 19 -13
13 -34 14 -50 3 -43 -27 17 -54 -52 -31 -80 10 -12 9 -18 0 -27 -10 -9 -11 -8
-6 6 4 10 2 17 -4 17 -6 0 -11 -7 -11 -15 0 -8 -4 -15 -10 -15 -5 0 -10 -7
-10 -15 0 -28 25 -14 63 36 38 50 38 61 -1 33 -20 -14 -22 -14 -22 3 1 18 30
65 30 47 0 -6 -5 -15 -12 -22 -7 -7 -9 -12 -5 -12 3 0 18 12 32 26 25 25 25
27 10 44 -10 11 -14 24 -9 31 4 8 3 10 -4 5 -7 -4 -12 -2 -12 3 0 13 -10 14
-30 1z"/>
<path d="M2471 1565 c1 -5 -1 -18 -6 -28 -10 -24 -2 -30 19 -14 15 11 15 14 1
32 -8 11 -15 16 -14 10z"/>
<path d="M2542 1563 c-6 -2 -9 -10 -5 -16 4 -7 0 -8 -13 -3 -10 4 -15 4 -11 0
4 -4 0 -16 -10 -26 -9 -10 -13 -21 -10 -25 4 -3 7 -1 7 6 0 8 7 10 22 5 20 -6
21 -5 9 10 -8 10 -9 16 -3 16 6 0 16 9 22 20 6 11 9 20 8 19 -2 0 -9 -3 -16
-6z"/>
<path d="M2353 1529 c3 -12 0 -22 -9 -26 -8 -3 -13 -17 -12 -33 2 -24 5 -27
20 -19 20 11 24 20 7 17 -6 -2 -14 3 -16 10 -3 6 3 12 12 12 9 0 14 4 10 9 -3
5 4 13 16 16 19 6 20 7 2 21 -26 19 -36 17 -30 -7z"/>
<path d="M2565 1539 c-11 -17 1 -21 15 -4 8 9 8 15 2 15 -6 0 -14 -5 -17 -11z"/>
<path d="M2276 1516 c2 -14 0 -26 -6 -26 -6 0 -8 -11 -4 -27 4 -22 3 -25 -5
-13 -7 9 -11 10 -11 3 0 -6 5 -15 10 -18 6 -3 10 -19 10 -34 0 -23 -4 -28 -24
-28 -19 0 -22 4 -18 20 3 14 1 18 -6 13 -7 -4 -12 -17 -12 -30 0 -21 3 -22 63
-18 34 2 63 5 65 7 1 1 -5 19 -14 40 -9 21 -13 49 -9 64 4 20 3 22 -5 11 -8
-12 -10 -10 -10 11 0 15 -7 32 -14 39 -13 10 -14 7 -10 -14z m34 -118 c0 -10
-6 -18 -12 -18 -8 0 -13 14 -13 35 0 31 2 33 13 18 6 -9 12 -25 12 -35z"/>
<path d="M2044 1495 c11 -8 22 -12 25 -9 6 6 -19 24 -34 24 -5 -1 -1 -7 9 -15z"/>
<path d="M2231 1494 c0 -11 3 -14 6 -6 3 7 2 16 -1 19 -3 4 -6 -2 -5 -13z"/>
<path d="M2490 1470 c8 -5 20 -10 25 -10 6 0 3 5 -5 10 -8 5 -19 10 -25 10 -5
0 -3 -5 5 -10z"/>
<path d="M1757 1415 c-42 -31 -79 -55 -84 -54 -4 1 -16 -1 -25 -5 -18 -8 -18
-22 -1 -206 9 -95 8 -209 -2 -348 l-7 -94 -173 4 c-137 2 -169 1 -156 -9 9 -7
11 -12 4 -13 -6 0 -18 6 -26 14 -9 9 -19 11 -28 5 -8 -5 -10 -9 -4 -9 5 0 4
-5 -3 -12 -15 -15 -16 -134 -2 -143 6 -4 8 -11 5 -16 -4 -5 8 -9 24 -9 47 0
71 30 71 89 0 28 -4 53 -10 56 -31 19 4 25 154 25 l163 0 9 83 c10 103 11 284
1 450 l-8 127 81 0 c47 0 80 4 80 10 0 9 -42 15 -82 11 -10 -1 -18 0 -18 3 0
10 65 40 80 37 8 -2 12 1 7 5 -4 4 3 18 15 31 34 36 17 28 -65 -32z m-445
-742 c34 -31 19 -133 -20 -133 -30 0 -42 22 -42 75 0 70 24 93 62 58z"/>
<path d="M2355 1431 c3 -5 1 -12 -5 -16 -5 -3 -10 -12 -10 -18 0 -7 7 -3 15 7
18 23 19 36 4 36 -5 0 -8 -4 -4 -9z"/>
<path d="M1935 1360 c-13 -6 3 -9 49 -9 38 -1 67 1 64 4 -9 9 -93 13 -113 5z"/>
<path d="M1710 1312 c0 -5 7 -9 15 -9 8 0 15 4 15 9 0 4 -7 8 -15 8 -8 0 -15
-4 -15 -8z"/>
<path d="M1998 1313 c-10 -2 -18 -8 -18 -13 0 -11 66 -5 100 9 22 9 20 10 -20
9 -25 0 -53 -2 -62 -5z"/>
<path d="M1920 1287 c0 -11 1 -18 3 -16 1 2 8 11 15 20 9 13 9 16 -3 16 -8 0
-15 -9 -15 -20z"/>
<path d="M1880 1211 c0 -6 4 -13 10 -16 6 -3 7 1 4 9 -7 18 -14 21 -14 7z"/>
<path d="M2404 1050 c0 -58 1 -81 3 -52 2 28 2 76 0 105 -2 28 -3 5 -3 -53z"/>
<path d="M1945 1120 c-3 -5 -1 -10 4 -10 6 0 11 5 11 10 0 6 -2 10 -4 10 -3 0
-8 -4 -11 -10z"/>
<path d="M2019 1103 c-13 -16 -12 -17 4 -4 16 13 21 21 13 21 -2 0 -10 -8 -17
-17z"/>
<path d="M1825 1040 c3 -5 8 -10 11 -10 2 0 4 5 4 10 0 6 -5 10 -11 10 -5 0
-7 -4 -4 -10z"/>
<path d="M1840 1015 c0 -7 30 -13 34 -7 3 4 -4 9 -15 9 -10 1 -19 0 -19 -2z"/>
<path d="M1871 983 c-1 -7 -9 -10 -18 -7 -16 5 -16 4 0 -6 21 -13 32 -8 24 12
-4 9 -6 9 -6 1z"/>
<path d="M2402 910 c0 -19 2 -27 5 -17 2 9 2 25 0 35 -3 9 -5 1 -5 -18z"/>
<path d="M1099 893 c-1 -21 -1 -42 0 -47 1 -5 -5 -6 -14 -3 -8 4 -15 1 -15 -6
0 -7 -4 -6 -10 3 -7 11 -5 17 8 22 13 5 13 7 2 7 -8 0 -20 -3 -26 -7 -14 -9
-25 -52 -13 -52 4 0 6 -7 3 -15 -4 -9 4 -23 17 -35 13 -10 18 -19 12 -20 -24
0 -13 -20 11 -20 32 0 56 10 56 22 0 6 -7 8 -15 4 -18 -7 -20 5 -3 22 19 19
28 14 28 -13 0 -13 -7 -28 -16 -33 -11 -6 -13 -11 -5 -16 6 -4 11 -3 11 2 0 6
7 12 14 15 11 4 13 1 9 -11 -5 -14 -3 -15 8 -4 7 6 25 12 40 12 15 0 31 5 34
10 6 9 -9 15 -29 11 -22 -5 -56 10 -56 24 0 8 5 15 11 15 5 0 7 -6 3 -12 -5
-10 -4 -10 6 -1 7 6 9 16 6 22 -10 16 -46 7 -73 -19 -18 -17 -27 -20 -35 -12
-9 9 -8 12 6 12 12 0 16 5 13 15 -4 8 -2 17 3 20 6 4 10 0 10 -7 0 -23 28 15
35 47 l6 30 -15 -32 c-8 -18 -17 -33 -18 -33 -2 0 -2 27 0 60 2 33 1 60 -2 60
-3 0 -7 -17 -7 -37z m-26 -67 c18 7 24 -11 7 -21 -6 -4 -7 -11 -4 -17 4 -6 2
-8 -4 -4 -5 3 -12 1 -14 -6 -3 -7 -7 -5 -11 6 -4 9 -3 15 2 11 5 -3 12 -1 16
5 3 5 -1 10 -9 10 -9 0 -16 8 -16 18 0 12 2 14 8 4 5 -7 16 -10 25 -6z"/>
<path d="M1271 860 c-17 -23 -28 -30 -44 -26 -12 3 -16 3 -9 0 6 -3 12 -17 12
-30 0 -17 -6 -24 -20 -24 -11 0 -20 -4 -20 -9 0 -12 24 -8 42 6 9 8 18 9 28 2
11 -8 12 -12 3 -16 -17 -6 -16 -23 1 -23 19 0 15 33 -7 54 -10 10 -15 21 -12
24 3 4 10 0 15 -8 8 -12 10 -10 10 8 0 12 7 34 16 47 23 35 12 31 -15 -5z"/>
<path d="M1753 875 c0 -8 4 -12 9 -9 5 3 6 10 3 15 -9 13 -12 11 -12 -6z"/>
<path d="M1830 855 c0 -14 2 -25 4 -25 2 0 6 11 8 25 3 14 1 25 -3 25 -5 0 -9
-11 -9 -25z"/>
<path d="M1860 870 c0 -5 5 -10 11 -10 5 0 7 5 4 10 -3 6 -8 10 -11 10 -2 0
-4 -4 -4 -10z"/>
<path d="M2400 781 l0 -92 283 2 c155 1 290 -2 300 -6 9 -4 17 -3 17 3 0 20
-39 23 -309 25 l-276 2 -3 75 c-5 106 -12 101 -12 -9z"/>
<path d="M1146 818 c3 -4 15 -8 26 -8 12 0 18 3 14 7 -10 10 -46 11 -40 1z"/>
<path d="M1018 714 c-5 -5 -423 -11 -855 -13 -113 -1 -163 -4 -163 -12 0 -8
140 -10 520 -8 487 4 520 5 520 22 0 17 -11 23 -22 11z"/>
<path d="M2393 635 c0 -27 2 -38 4 -22 2 15 2 37 0 50 -2 12 -4 0 -4 -28z"/>
<path d="M850 663 c0 -7 10 -20 23 -30 13 -10 22 -23 20 -28 -2 -6 17 -9 47
-7 55 4 66 26 14 28 -55 1 -63 4 -84 26 -11 12 -20 17 -20 11z"/>
<path d="M1032 640 c0 -19 2 -27 5 -17 2 9 2 25 0 35 -3 9 -5 1 -5 -18z"/>
<path d="M1641 648 c-2 -16 -4 -45 -6 -65 -1 -21 -5 -47 -10 -58 -6 -17 -5
-17 9 2 13 17 16 38 13 85 -2 35 -5 51 -6 36z"/>
<path d="M905 650 c-3 -5 -2 -10 4 -10 5 0 18 -3 28 -7 16 -6 16 -5 4 10 -15
19 -27 22 -36 7z"/>
<path d="M833 623 c-24 -9 -13 -23 17 -23 32 0 40 14 14 24 -9 3 -16 6 -17 5
-1 0 -8 -3 -14 -6z"/>
<path d="M1003 568 c-2 -24 0 -63 3 -87 l6 -43 35 33 c59 57 64 110 11 121
-13 3 -30 8 -38 12 -12 5 -16 -2 -17 -36z m61 6 c22 -8 20 -36 -5 -68 -28 -35
-39 -33 -39 8 0 59 10 73 44 60z"/>
<path d="M803 530 c0 -41 2 -58 4 -37 2 20 2 54 0 75 -2 20 -4 3 -4 -38z"/>
<path d="M1693 524 c-17 -13 -16 -14 12 -8 37 8 51 19 26 21 -11 1 -27 -5 -38
-13z"/>
<path d="M1360 509 c-46 -4 -86 -6 -89 -4 -2 3 -9 -3 -16 -12 -8 -10 -32 -18
-67 -21 -50 -4 -57 -2 -63 17 -8 25 -25 18 -25 -10 0 -16 7 -19 50 -19 27 0
98 7 157 16 59 9 114 17 121 17 6 0 12 4 12 8 0 4 8 10 18 12 24 7 1 6 -98 -4z"/>
<path d="M1647 489 c10 -10 63 -14 210 -16 109 -1 277 -4 373 -6 96 -2 186 0
200 4 25 9 25 9 -2 5 -16 -2 -28 0 -28 3 0 3 -156 7 -348 9 -191 1 -363 5
-382 8 -29 5 -33 4 -23 -7z"/>
<path d="M2460 479 c0 -5 5 -7 10 -4 6 3 10 8 10 11 0 2 -4 4 -10 4 -5 0 -10
-5 -10 -11z"/>
<path d="M1055 440 c-77 -22 -119 -30 -134 -25 -9 2 -29 1 -46 -4 -43 -13 117
-13 214 -1 71 9 122 30 74 30 -11 0 -33 2 -49 4 -16 3 -42 1 -59 -4z"/>
<path d="M2516 243 c-1 -1 -409 -4 -907 -5 -1304 -3 -1609 -7 -1609 -20 0 -10
1257 -6 2534 8 225 2 422 4 438 4 15 0 28 5 28 11 0 7 -73 10 -240 8 -132 -2
-242 -4 -244 -6z"/>
<path d="M1088 183 c-1053 -3 -1088 -4 -1088 -22 0 -18 28 -18 887 -14 489 2
1016 5 1173 7 196 2 289 0 299 -8 11 -8 13 -8 8 0 -4 8 13 12 56 14 34 1 73 3
87 5 14 1 130 3 258 4 147 1 232 5 232 11 0 7 -143 9 -412 8 -227 -2 -902 -4
-1500 -5z"/>
<path d="M2646 139 c4 -8 30 -6 38 2 3 3 -5 5 -19 5 -13 0 -22 -3 -19 -7z"/>
<path d="M2730 141 c0 -5 9 -7 20 -4 11 3 20 7 20 9 0 2 -9 4 -20 4 -11 0 -20
-4 -20 -9z"/>
<path d="M2795 140 c3 -5 8 -10 11 -10 2 0 4 5 4 10 0 6 -5 10 -11 10 -5 0 -7
-4 -4 -10z"/>
<path d="M2768 113 c6 -2 18 -2 25 0 6 3 1 5 -13 5 -14 0 -19 -2 -12 -5z"/>
<path d="M2886 108 c3 -5 10 -6 15 -3 13 9 11 12 -6 12 -8 0 -12 -4 -9 -9z"/>
<path d="M2920 116 c0 -2 11 -6 25 -8 13 -3 22 -1 19 3 -5 9 -44 13 -44 5z"/>
<path d="M2980 110 c0 -5 5 -10 11 -10 5 0 7 5 4 10 -3 6 -8 10 -11 10 -2 0
-4 -4 -4 -10z"/>
<path d="M2170 99 c0 -5 5 -7 10 -4 6 3 10 8 10 11 0 2 -4 4 -10 4 -5 0 -10
-5 -10 -11z"/>
<path d="M2430 99 c0 -12 -120 -14 -752 -11 -414 1 -813 4 -886 5 -72 1 -132
-2 -132 -6 0 -5 -3 -6 -7 -4 -14 8 -486 11 -533 3 -25 -4 -49 -12 -55 -18 -7
-7 386 -9 1398 -4 l1407 7 0 -38 c1 -36 1 -37 16 -18 8 11 12 25 9 33 -3 10 3
12 23 10 21 -2 28 -9 30 -30 5 -40 22 -35 22 6 0 24 5 36 16 38 9 2 -27 3 -79
4 -62 1 -102 6 -112 14 -10 9 -15 9 -15 1 0 -11 -97 -8 -108 4 -3 3 -11 0 -18
-6 -9 -7 -19 -7 -33 0 -13 8 -22 8 -26 1 -4 -6 -11 -7 -17 -4 -6 4 -36 6 -66
5 -30 -1 -60 4 -68 10 -11 9 -14 8 -14 -2z"/>
<path d="M8 30 c6 -39 12 -39 12 0 0 17 -4 30 -8 30 -5 0 -7 -13 -4 -30z"/>
<path d="M72 25 c0 -17 2 -22 5 -12 2 9 2 23 0 30 -3 6 -5 -1 -5 -18z"/>
<path d="M110 20 c0 -11 4 -20 9 -20 11 0 22 26 14 34 -12 12 -23 5 -23 -14z"/>
</g>
</svg>
